<svg xmlns="http://www.w3.org/2000/svg" xmlns:xlink="http://www.w3.org/1999/xlink" width="181" zoomAndPan="magnify" viewBox="0 0 135.75 76.499998" height="102" preserveAspectRatio="xMidYMid meet" version="1.0"><defs><g/><clipPath id="e8dfd62c02"><path d="M 82 14 L 100.867188 14 L 100.867188 29 L 82 29 Z M 82 14 " clip-rule="nonzero"/></clipPath><clipPath id="cbcdc8f30e"><rect x="0" width="101" y="0" height="38"/></clipPath><clipPath id="fa24a0d133"><path d="M 9.679688 3.320312 L 55 3.320312 L 55 25 L 9.679688 25 Z M 9.679688 3.320312 " clip-rule="nonzero"/></clipPath><clipPath id="8ca308f743"><path d="M 62 3.320312 L 96 3.320312 L 96 11 L 62 11 Z M 62 3.320312 " clip-rule="nonzero"/></clipPath><clipPath id="ad9f4acf3e"><path d="M 86 28 L 125.921875 28 L 125.921875 34 L 86 34 Z M 86 28 " clip-rule="nonzero"/></clipPath></defs><g transform="matrix(1, 0, 0, 1, 17, 36)"><g clip-path="url(#cbcdc8f30e)"><g fill="#000000" fill-opacity="1"><g transform="translate(2.039574, 28.288823)"><g><path d="M -0.59375 0 L 10.109375 -19.75 L 14.1875 -19.75 L 17.921875 0 L 14.109375 0 L 13.3125 -4.578125 L 5.609375 -4.578125 L 3.21875 0 Z M 7.046875 -7.34375 L 12.875 -7.34375 L 11.421875 -15.6875 Z M 7.046875 -7.34375 "/></g></g></g><g fill="#ff3131" fill-opacity="1"><g transform="translate(21.829402, 28.288823)"><g><path d="M 5.84375 0.34375 C 4.375 0.34375 3.242188 -0.0546875 2.453125 -0.859375 C 1.660156 -1.660156 1.265625 -2.8125 1.265625 -4.3125 C 1.265625 -4.84375 1.320312 -5.4375 1.4375 -6.09375 L 2.84375 -14 L 6.4375 -14 L 5.109375 -6.4375 C 5.066406 -6.207031 5.035156 -5.992188 5.015625 -5.796875 C 5.003906 -5.597656 5 -5.414062 5 -5.25 C 5 -3.550781 5.828125 -2.703125 7.484375 -2.703125 C 8.492188 -2.703125 9.382812 -3.054688 10.15625 -3.765625 C 10.925781 -4.472656 11.425781 -5.4375 11.65625 -6.65625 L 12.921875 -14 L 16.53125 -14 L 14.078125 0 L 10.890625 0 L 11 -2.3125 C 10.414062 -1.5 9.679688 -0.851562 8.796875 -0.375 C 7.921875 0.101562 6.9375 0.34375 5.84375 0.34375 Z M 5.84375 0.34375 "/></g></g></g><g fill="#ff3131" fill-opacity="1"><g transform="translate(39.018465, 28.288823)"><g><path d="M 6.609375 0 C 5.328125 0 4.304688 -0.257812 3.546875 -0.78125 C 2.785156 -1.3125 2.40625 -2.226562 2.40625 -3.53125 C 2.40625 -3.9375 2.453125 -4.394531 2.546875 -4.90625 L 3.609375 -10.984375 L 1.359375 -10.984375 L 1.890625 -14 L 4.140625 -14 L 5.21875 -17.75 L 8.4375 -17.75 L 7.765625 -14 L 11.5625 -14 L 11 -10.984375 L 7.25 -10.984375 L 6.15625 -4.875 C 6.113281 -4.6875 6.09375 -4.5 6.09375 -4.3125 C 6.09375 -3.863281 6.21875 -3.546875 6.46875 -3.359375 C 6.726562 -3.171875 7.148438 -3.078125 7.734375 -3.078125 L 9.65625 -3.078125 L 9.09375 0 Z M 6.609375 0 "/></g></g></g><g fill="#ff3131" fill-opacity="1"><g transform="translate(50.647187, 28.288823)"><g><path d="M 7.421875 0.34375 C 6.203125 0.34375 5.128906 0.0703125 4.203125 -0.46875 C 3.285156 -1.019531 2.566406 -1.757812 2.046875 -2.6875 C 1.523438 -3.625 1.265625 -4.691406 1.265625 -5.890625 C 1.265625 -7.078125 1.476562 -8.179688 1.90625 -9.203125 C 2.332031 -10.234375 2.925781 -11.132812 3.6875 -11.90625 C 4.445312 -12.675781 5.332031 -13.269531 6.34375 -13.6875 C 7.363281 -14.113281 8.457031 -14.328125 9.625 -14.328125 C 10.863281 -14.328125 11.945312 -14.0625 12.875 -13.53125 C 13.8125 -13.007812 14.539062 -12.285156 15.0625 -11.359375 C 15.59375 -10.441406 15.859375 -9.375 15.859375 -8.15625 C 15.859375 -6.945312 15.640625 -5.828125 15.203125 -4.796875 C 14.773438 -3.773438 14.179688 -2.878906 13.421875 -2.109375 C 12.660156 -1.335938 11.765625 -0.734375 10.734375 -0.296875 C 9.710938 0.128906 8.609375 0.34375 7.421875 0.34375 Z M 7.90625 -2.796875 C 8.707031 -2.796875 9.425781 -3.019531 10.0625 -3.46875 C 10.707031 -3.914062 11.21875 -4.53125 11.59375 -5.3125 C 11.96875 -6.09375 12.15625 -6.972656 12.15625 -7.953125 C 12.15625 -8.992188 11.867188 -9.796875 11.296875 -10.359375 C 10.722656 -10.921875 10.035156 -11.203125 9.234375 -11.203125 C 8.441406 -11.203125 7.71875 -10.972656 7.0625 -10.515625 C 6.414062 -10.066406 5.90625 -9.453125 5.53125 -8.671875 C 5.15625 -7.890625 4.96875 -7.007812 4.96875 -6.03125 C 4.96875 -5 5.253906 -4.203125 5.828125 -3.640625 C 6.398438 -3.078125 7.09375 -2.796875 7.90625 -2.796875 Z M 7.90625 -2.796875 "/></g></g></g><g fill="#ff3131" fill-opacity="1"><g transform="translate(67.779798, 28.288823)"><g><path d="M 0.671875 0 L 4.171875 -19.75 L 16.390625 -19.75 L 15.859375 -16.90625 L 7.28125 -16.90625 L 6.328125 -11.40625 L 14.046875 -11.40625 L 13.578125 -8.640625 L 5.84375 -8.640625 L 4.796875 -2.84375 L 13.40625 -2.84375 L 12.890625 0 Z M 0.671875 0 "/></g></g></g><g clip-path="url(#e8dfd62c02)"><g fill="#000000" fill-opacity="1"><g transform="translate(83.588884, 28.288823)"><g><path d="M -0.703125 0 L 5.640625 -7.03125 L 1.78125 -14 L 5.609375 -14 L 8.296875 -9.03125 L 12.703125 -14 L 16.59375 -14 L 10.25 -6.96875 L 14.078125 0 L 10.25 0 L 7.59375 -4.96875 L 3.15625 0 Z M -0.703125 0 "/></g></g></g></g></g></g><path stroke-linecap="butt" transform="matrix(0.74513, -0.000000000000000092, 0.000000000000000092, 0.74513, 19.044505, 71.522216)" fill="none" stroke-linejoin="miter" d="M -0.00206209 0.499664 L 130.732288 0.499664 " stroke="#ff3131" stroke-width="1" stroke-opacity="1" stroke-miterlimit="4"/><g clip-path="url(#fa24a0d133)"><path fill="#ff3131" d="M 52.089844 3.625 C 52.929688 3.488281 53.769531 3.332031 54.617188 3.320312 C 52.167969 3.699219 49.742188 4.296875 47.425781 5.191406 C 45.292969 6.019531 43.273438 7.144531 41.453125 8.53125 C 39.757812 9.800781 38.238281 11.28125 36.628906 12.648438 C 34.816406 14.15625 32.832031 15.445312 30.785156 16.605469 C 26.390625 19.074219 21.695312 20.957031 16.914062 22.53125 C 14.855469 23.195312 12.777344 23.816406 10.675781 24.347656 C 10.367188 24.417969 10.0625 24.523438 9.742188 24.542969 C 10.941406 24.253906 12.117188 23.878906 13.300781 23.527344 C 18.308594 21.988281 23.238281 20.132812 27.890625 17.707031 C 31.171875 15.992188 34.324219 13.976562 37.082031 11.492188 C 37.742188 10.921875 38.332031 10.28125 39 9.722656 C 42.6875 6.527344 47.304688 4.492188 52.089844 3.625 Z M 52.089844 3.625 " fill-opacity="1" fill-rule="nonzero"/></g><g clip-path="url(#8ca308f743)"><path fill="#ff3131" d="M 63.707031 4.015625 C 69.019531 3.667969 74.351562 4.078125 79.613281 4.824219 C 80.992188 4.925781 82.277344 5.457031 83.570312 5.886719 C 87.628906 7.277344 91.644531 8.808594 95.535156 10.617188 C 92.210938 10.320312 88.871094 10.222656 85.535156 10.214844 C 81.546875 10.195312 77.558594 10.3125 73.578125 10.507812 C 72.628906 10.5625 71.667969 10.589844 70.730469 10.417969 C 69.988281 10.277344 69.253906 9.996094 68.671875 9.5 C 67.085938 8.082031 65.578125 6.5625 63.867188 5.289062 C 63.570312 5.058594 63.203125 4.898438 62.992188 4.574219 C 62.910156 4.464844 62.894531 4.289062 63.019531 4.207031 C 63.21875 4.0625 63.472656 4.042969 63.707031 4.015625 Z M 63.707031 4.015625 " fill-opacity="1" fill-rule="nonzero"/></g><path fill="#ff3131" d="M 55.203125 4.980469 C 56.5625 4.839844 57.949219 4.90625 59.261719 5.296875 C 61.007812 5.792969 62.582031 6.796875 63.867188 8.074219 C 64.941406 9.136719 65.816406 10.386719 66.550781 11.707031 C 61.300781 11.921875 56.050781 12.113281 50.800781 12.332031 C 50.082031 10.761719 49.148438 9.265625 47.921875 8.042969 C 47.71875 7.832031 47.4375 7.660156 47.347656 7.367188 C 47.332031 7.132812 47.589844 7.035156 47.761719 6.949219 C 48.648438 6.574219 49.5625 6.265625 50.480469 5.980469 C 52.019531 5.511719 53.597656 5.136719 55.203125 4.980469 Z M 55.203125 4.980469 " fill-opacity="1" fill-rule="nonzero"/><path fill="#ff3131" d="M 44.933594 8.257812 C 45.277344 8.089844 45.617188 7.847656 46.015625 7.832031 C 46.320312 7.867188 46.554688 8.089844 46.785156 8.273438 C 47.457031 8.882812 47.980469 9.632812 48.480469 10.386719 C 48.757812 10.8125 49.019531 11.25 49.265625 11.699219 C 49.347656 11.863281 49.441406 12.0625 49.359375 12.246094 C 49.234375 12.433594 48.984375 12.410156 48.789062 12.417969 C 47.351562 12.398438 45.914062 12.421875 44.472656 12.464844 C 43.097656 12.527344 41.71875 12.601562 40.355469 12.820312 C 39.859375 12.910156 39.355469 13.003906 38.894531 13.210938 C 39.945312 11.421875 41.582031 10.042969 43.382812 9.046875 C 43.886719 8.757812 44.414062 8.515625 44.933594 8.257812 Z M 44.933594 8.257812 " fill-opacity="1" fill-rule="nonzero"/><path fill="#ff3131" d="M 78.320312 11.398438 C 81.464844 11.324219 84.609375 11.242188 87.753906 11.097656 C 91.144531 10.980469 94.542969 11.027344 97.921875 11.339844 C 100.847656 11.597656 103.765625 11.910156 106.675781 12.292969 C 108.210938 12.5 109.742188 12.722656 111.261719 13.027344 C 113.507812 13.460938 115.785156 13.910156 117.894531 14.832031 C 118.527344 15.117188 119.148438 15.433594 119.738281 15.804688 C 118.539062 15.339844 117.3125 14.945312 116.050781 14.707031 C 115.511719 14.597656 114.96875 14.542969 114.429688 14.4375 C 113.820312 14.386719 113.210938 14.441406 112.601562 14.433594 C 110.703125 14.449219 108.804688 14.507812 106.921875 14.765625 C 106.675781 14.804688 106.390625 14.847656 106.238281 15.066406 C 106.105469 15.28125 106.207031 15.546875 106.304688 15.753906 C 106.957031 16.902344 107.539062 18.089844 108.144531 19.265625 C 108.558594 20.09375 108.992188 20.910156 109.394531 21.746094 C 107.746094 19.121094 105.476562 16.898438 102.84375 15.269531 C 102.394531 14.992188 101.933594 14.726562 101.457031 14.503906 C 100.804688 14.203125 100.101562 14.039062 99.398438 13.929688 C 98.042969 13.753906 96.707031 13.464844 95.363281 13.242188 C 88.941406 12.128906 82.429688 11.476562 75.910156 11.46875 C 76.714844 11.410156 77.519531 11.421875 78.320312 11.398438 Z M 78.320312 11.398438 " fill-opacity="1" fill-rule="nonzero"/><path fill="#ff3131" d="M 94.351562 14.960938 C 95.367188 15.175781 96.394531 15.546875 97.171875 16.253906 C 97.625 16.65625 97.960938 17.195312 98.105469 17.78125 C 98.199219 18.171875 98.148438 18.605469 97.910156 18.929688 C 97.621094 19.332031 97.15625 19.5625 96.699219 19.710938 C 97.121094 19.390625 97.554688 19.027344 97.730469 18.511719 C 97.898438 18.027344 97.742188 17.496094 97.445312 17.097656 C 96.980469 16.464844 96.324219 16.011719 95.660156 15.617188 C 95.238281 15.367188 94.800781 15.152344 94.351562 14.960938 Z M 94.351562 14.960938 " fill-opacity="1" fill-rule="nonzero"/><path fill="#ff3131" d="M 113.90625 14.957031 C 114.1875 14.921875 114.472656 14.910156 114.757812 14.941406 C 116.101562 15.210938 117.457031 15.441406 118.761719 15.871094 C 119.144531 16 119.527344 16.152344 119.835938 16.410156 C 120.253906 16.738281 120.519531 17.214844 120.6875 17.710938 C 120.992188 18.59375 121.304688 19.476562 121.523438 20.386719 C 121.613281 20.773438 121.710938 21.207031 121.511719 21.578125 C 121.394531 21.816406 121.117188 21.9375 120.863281 21.917969 C 118.296875 21.722656 115.726562 21.625 113.15625 21.582031 C 112.496094 21.554688 111.816406 21.644531 111.183594 21.425781 C 110.46875 21.179688 109.953125 20.589844 109.53125 19.992188 C 108.84375 18.992188 108.230469 17.941406 107.660156 16.871094 C 107.484375 16.511719 107.316406 16.097656 107.421875 15.691406 C 107.5 15.394531 107.820312 15.261719 108.101562 15.242188 C 110.03125 15.050781 111.972656 15.054688 113.90625 14.957031 Z M 113.90625 14.957031 " fill-opacity="1" fill-rule="nonzero"/><path fill="#ff3131" d="M 92.757812 15.023438 C 93.761719 14.945312 94.714844 15.398438 95.554688 15.898438 C 96.089844 16.226562 96.609375 16.609375 96.972656 17.132812 C 97.269531 17.554688 97.421875 18.09375 97.324219 18.605469 C 97.1875 19.066406 96.765625 19.386719 96.316406 19.519531 C 95.742188 19.6875 95.128906 19.664062 94.550781 19.554688 C 93.175781 19.289062 91.988281 18.289062 91.429688 17.015625 C 91.257812 16.632812 91.234375 16.152344 91.507812 15.808594 C 91.824219 15.425781 92.246094 15.070312 92.757812 15.023438 Z M 92.757812 15.023438 " fill-opacity="1" fill-rule="nonzero"/><path fill="#ff3131" d="M 99.3125 15.050781 C 100.304688 14.882812 101.300781 15.273438 102.109375 15.828125 C 102.625 16.183594 103.082031 16.613281 103.503906 17.074219 C 103.894531 17.472656 104.140625 17.992188 104.277344 18.523438 C 104.371094 18.953125 104.378906 19.453125 104.09375 19.816406 C 103.761719 20.238281 103.1875 20.375 102.675781 20.363281 C 101.300781 20.230469 99.996094 19.488281 99.183594 18.371094 C 98.886719 17.96875 98.648438 17.523438 98.472656 17.0625 C 98.328125 16.632812 98.285156 16.152344 98.46875 15.726562 C 98.613281 15.378906 98.941406 15.117188 99.3125 15.050781 Z M 99.3125 15.050781 " fill-opacity="1" fill-rule="nonzero"/><path fill="#ff3131" d="M 101.617188 15.199219 C 102.492188 15.675781 103.367188 16.175781 104.121094 16.835938 C 104.5 17.179688 104.863281 17.566406 105.0625 18.042969 C 105.21875 18.402344 105.234375 18.828125 105.058594 19.183594 C 104.921875 19.472656 104.679688 19.691406 104.433594 19.882812 C 104.691406 19.414062 104.753906 18.847656 104.582031 18.335938 C 104.320312 17.523438 103.722656 16.875 103.101562 16.3125 C 102.644531 15.894531 102.125 15.554688 101.617188 15.199219 Z M 101.617188 15.199219 " fill-opacity="1" fill-rule="nonzero"/><path fill="#ff3131" d="M 120.945312 17.0625 C 120.96875 17.046875 121.019531 17.023438 121.046875 17.007812 C 121.289062 17.058594 121.476562 17.242188 121.652344 17.410156 C 122.160156 17.949219 122.511719 18.613281 122.8125 19.285156 C 123.011719 19.753906 123.230469 20.226562 123.300781 20.734375 C 123.324219 20.953125 123.34375 21.210938 123.179688 21.386719 C 123.078125 21.449219 122.96875 21.367188 122.890625 21.304688 C 122.230469 20.652344 121.902344 19.761719 121.484375 18.949219 C 121.265625 18.480469 121.027344 18.011719 120.90625 17.503906 C 120.882812 17.359375 120.839844 17.183594 120.945312 17.0625 Z M 120.945312 17.0625 " fill-opacity="1" fill-rule="nonzero"/><path fill="#ff3131" d="M 76.632812 18.667969 C 77.742188 18.46875 78.917969 18.476562 79.984375 18.890625 C 80.917969 19.242188 81.722656 19.882812 82.34375 20.65625 C 83.121094 21.621094 83.636719 22.769531 83.984375 23.953125 C 84.351562 25.25 84.53125 26.601562 84.511719 27.953125 C 84.441406 29.15625 84.28125 30.355469 83.964844 31.519531 C 83.664062 32.609375 83.214844 33.675781 82.527344 34.582031 C 81.925781 35.382812 81.121094 36.042969 80.191406 36.429688 C 79.136719 36.875 77.960938 36.980469 76.832031 36.832031 C 77.816406 36.738281 78.789062 36.421875 79.582031 35.824219 C 80.484375 35.160156 81.132812 34.207031 81.578125 33.1875 C 82.152344 31.863281 82.4375 30.433594 82.605469 29.007812 C 82.785156 27.621094 82.761719 26.207031 82.585938 24.820312 C 82.4375 23.675781 82.15625 22.53125 81.625 21.5 C 81.167969 20.613281 80.496094 19.824219 79.625 19.316406 C 78.730469 18.78125 77.664062 18.601562 76.632812 18.667969 Z M 76.632812 18.667969 " fill-opacity="1" fill-rule="nonzero"/><path fill="#ff3131" d="M 39.480469 21.757812 C 39.996094 22.644531 40.550781 23.519531 41.277344 24.25 C 41.699219 24.667969 42.191406 25.027344 42.75 25.242188 C 43.335938 25.472656 43.972656 25.53125 44.59375 25.574219 C 52.15625 26.035156 59.722656 26.464844 67.285156 26.90625 C 67.742188 26.949219 68.207031 26.925781 68.660156 27.007812 C 65.078125 26.925781 61.496094 26.894531 57.910156 26.828125 C 53.308594 26.761719 48.707031 26.683594 44.105469 26.617188 C 43.511719 26.59375 42.902344 26.648438 42.316406 26.523438 C 41.4375 26.324219 40.75 25.59375 40.480469 24.753906 C 40.152344 23.753906 39.792969 22.761719 39.480469 21.757812 Z M 39.480469 21.757812 " fill-opacity="1" fill-rule="nonzero"/><path fill="#ff3131" d="M 44.90625 28.019531 C 45.171875 27.988281 45.4375 27.925781 45.707031 27.929688 C 50.699219 28.125 55.695312 28.304688 60.691406 28.453125 C 62.5 28.496094 64.308594 28.558594 66.117188 28.5625 C 66.320312 28.566406 66.523438 28.585938 66.722656 28.613281 C 66.003906 28.59375 65.289062 28.675781 64.574219 28.683594 C 60.035156 28.867188 55.488281 28.878906 50.949219 28.859375 C 47.367188 28.839844 43.789062 28.78125 40.210938 28.695312 C 41.773438 28.457031 43.339844 28.246094 44.90625 28.019531 Z M 44.90625 28.019531 " fill-opacity="1" fill-rule="nonzero"/><g clip-path="url(#ad9f4acf3e)"><path fill="#ff3131" d="M 86.878906 28.570312 C 86.921875 28.464844 87.039062 28.480469 87.132812 28.480469 C 89.8125 28.609375 92.496094 28.726562 95.175781 28.664062 C 95.597656 29.488281 96.3125 30.167969 97.1875 30.488281 C 97.753906 30.707031 98.367188 30.792969 98.972656 30.765625 C 103.816406 31.070312 108.667969 31.324219 113.523438 31.253906 C 115.25 31.191406 116.976562 31.085938 118.699219 30.925781 C 120.039062 30.796875 121.378906 30.636719 122.695312 30.359375 C 123.261719 30.234375 123.832031 30.09375 124.367188 29.871094 C 124.644531 29.746094 124.941406 29.609375 125.109375 29.339844 C 125.386719 29.699219 125.511719 30.140625 125.636719 30.566406 C 125.753906 30.96875 125.675781 31.429688 125.398438 31.75 C 125 32.21875 124.40625 32.457031 123.835938 32.648438 C 122.644531 33.027344 121.402344 33.191406 120.164062 33.335938 C 116.957031 33.671875 113.730469 33.769531 110.507812 33.878906 C 103.84375 34.09375 97.167969 33.898438 90.527344 33.335938 C 89.457031 33.238281 88.386719 33.140625 87.316406 33.011719 C 87.234375 32.988281 87.097656 33.003906 87.082031 32.890625 C 87.085938 31.449219 87.007812 30.007812 86.878906 28.570312 Z M 86.878906 28.570312 " fill-opacity="1" fill-rule="nonzero"/></g><path fill="#ff3131" d="M 82.207031 35.78125 C 84.011719 34.226562 84.9375 31.832031 85.039062 29.484375 C 85.199219 30.132812 85.191406 30.808594 85.234375 31.46875 C 85.257812 32.351562 85.285156 33.234375 85.234375 34.117188 C 85.269531 34.296875 85.496094 34.347656 85.65625 34.382812 C 86.421875 34.5 87.203125 34.488281 87.980469 34.550781 C 87.761719 34.914062 87.433594 35.191406 87.132812 35.488281 C 86.675781 35.929688 86.195312 36.351562 85.703125 36.757812 C 85.140625 37.214844 84.367188 37.183594 83.683594 37.269531 C 82.214844 37.375 80.734375 37.484375 79.265625 37.351562 C 80.335938 37.035156 81.359375 36.515625 82.207031 35.78125 Z M 82.207031 35.78125 " fill-opacity="1" fill-rule="nonzero"/><path fill="#ff3131" d="M 28.621094 30.695312 C 29.984375 30.800781 31.339844 30.976562 32.699219 31.101562 C 38.984375 31.734375 45.269531 32.339844 51.566406 32.886719 C 55.773438 33.25 59.984375 33.59375 64.203125 33.839844 C 65.238281 33.878906 66.273438 33.957031 67.308594 33.964844 C 65.636719 33.992188 63.964844 33.945312 62.292969 33.933594 C 58.058594 33.898438 53.824219 33.863281 49.589844 33.847656 C 49.289062 33.839844 48.984375 33.855469 48.683594 33.832031 C 41.996094 32.792969 35.3125 31.730469 28.621094 30.695312 Z M 28.621094 30.695312 " fill-opacity="1" fill-rule="nonzero"/><path fill="#ff3131" d="M 114.140625 34.886719 C 115.449219 34.847656 116.757812 34.789062 118.0625 34.679688 C 117.839844 35.089844 117.457031 35.378906 117.109375 35.671875 C 115.484375 36.941406 113.496094 37.792969 111.429688 37.914062 C 110.109375 37.988281 108.773438 37.730469 107.578125 37.164062 C 106.425781 36.628906 105.402344 35.835938 104.523438 34.921875 C 107.730469 34.960938 110.933594 34.96875 114.140625 34.886719 Z M 114.140625 34.886719 " fill-opacity="1" fill-rule="nonzero"/></svg>